<?xml version="1.0" encoding="UTF-8"?>
<svg xmlns="http://www.w3.org/2000/svg" width="18" height="18" viewBox="0 0 18 18">
  <path fill="#000000" fill-rule="evenodd" d="M9 1.4c3.72 0 6.55 2.39 6.55 5.62 0 1.78-.84 3.34-2.24 4.35-.34.25-.54.64-.54 1.06v1.12c0 1.69-1.37 3.05-3.05 3.05H8.28a3.05 3.05 0 0 1-3.05-3.05v-1.12c0-.42-.2-.81-.54-1.06a5.3 5.3 0 0 1-2.24-4.35C2.45 3.79 5.28 1.4 9 1.4Zm-2.34 5A1.08 1.08 0 1 0 6.66 8.56 1.08 1.08 0 0 0 6.66 6.4Zm4.68 0a1.08 1.08 0 1 0 0 2.16 1.08 1.08 0 0 0 0-2.16ZM6.72 11.1a.7.7 0 0 0-.32 1.34c1.74.83 3.46.83 5.2 0a.7.7 0 1 0-.6-1.27c-1.34.64-2.66.64-4 0a.7.7 0 0 0-.28-.07Z"/>
</svg>
